<?xml version="1.0" encoding="UTF-8"?>
<svg xmlns="http://www.w3.org/2000/svg" xmlns:xlink="http://www.w3.org/1999/xlink" width="20pt" height="20pt" viewBox="0 0 80 80" version="1.1">
<g id="surface1">
<path style=" stroke:none;fill-rule:nonzero;fill:rgb(0%,0%,0%);fill-opacity:1;" d="M 74.285156 11.429688 L 54.285156 11.429688 L 54.285156 8.570312 C 54.285156 3.835938 50.449219 0 45.714844 0 L 34.285156 0 C 29.550781 0 25.714844 3.835938 25.714844 8.570312 L 25.714844 11.429688 L 5.714844 11.429688 C 4.136719 11.429688 2.855469 12.707031 2.855469 14.285156 C 2.855469 15.863281 4.136719 17.144531 5.714844 17.144531 L 8.820312 17.144531 L 14.285156 77.402344 C 14.421875 78.878906 15.660156 80.007812 17.144531 80 L 62.855469 80 C 64.339844 80.007812 65.578125 78.878906 65.714844 77.402344 L 71.179688 17.144531 L 74.285156 17.144531 C 75.863281 17.144531 77.144531 15.863281 77.144531 14.285156 C 77.144531 12.707031 75.863281 11.429688 74.285156 11.429688 Z M 31.429688 8.570312 C 31.429688 6.992188 32.707031 5.714844 34.285156 5.714844 L 45.714844 5.714844 C 47.292969 5.714844 48.570312 6.992188 48.570312 8.570312 L 48.570312 11.429688 L 31.429688 11.429688 Z M 60.25 74.285156 L 19.75 74.285156 L 14.570312 17.144531 L 65.441406 17.144531 Z M 60.25 74.285156 "/>
<path style=" stroke:none;fill-rule:nonzero;fill:rgb(0%,0%,0%);fill-opacity:1;" d="M 31.429688 65.523438 C 31.429688 65.519531 31.429688 65.515625 31.429688 65.511719 L 28.570312 25.511719 C 28.460938 23.933594 27.089844 22.746094 25.511719 22.855469 C 23.933594 22.96875 22.746094 24.339844 22.855469 25.917969 L 25.714844 65.917969 C 25.820312 67.414062 27.070312 68.574219 28.570312 68.570312 L 28.777344 68.570312 C 30.351562 68.460938 31.539062 67.097656 31.429688 65.523438 Z M 31.429688 65.523438 "/>
<path style=" stroke:none;fill-rule:nonzero;fill:rgb(0%,0%,0%);fill-opacity:1;" d="M 40 22.855469 C 38.421875 22.855469 37.144531 24.136719 37.144531 25.714844 L 37.144531 65.714844 C 37.144531 67.292969 38.421875 68.570312 40 68.570312 C 41.578125 68.570312 42.855469 67.292969 42.855469 65.714844 L 42.855469 25.714844 C 42.855469 24.136719 41.578125 22.855469 40 22.855469 Z M 40 22.855469 "/>
<path style=" stroke:none;fill-rule:nonzero;fill:rgb(0%,0%,0%);fill-opacity:1;" d="M 54.488281 22.855469 C 52.910156 22.746094 51.539062 23.933594 51.429688 25.511719 L 48.570312 65.511719 C 48.457031 67.085938 49.636719 68.453125 51.210938 68.570312 C 51.214844 68.570312 51.222656 68.570312 51.226562 68.570312 L 51.429688 68.570312 C 52.929688 68.574219 54.179688 67.414062 54.285156 65.917969 L 57.144531 25.917969 C 57.253906 24.339844 56.066406 22.96875 54.488281 22.855469 Z M 54.488281 22.855469 "/>
</g>
</svg>
