<svg width="28" height="28" viewBox="0 0 24 24" fill="none" xmlns="http://www.w3.org/2000/svg">
<path d="M19.5 6.00012H18H15V4.50012C15 4.22375 14.7764 4.00012 14.5 4.00012H9.5C9.22388 4.00012 9 4.22375 9 4.50012V6.00012H6H4.5C4.22388 6.00012 4 6.22375 4 6.50012C4 6.77649 4.22388 7.00012 4.5 7.00012H5.53696L6.50146 19.5387C6.52148 19.799 6.73877 20.0001 7 20.0001H17C17.2612 20.0001 17.4785 19.799 17.4985 19.5387L18.463 7.00012H19.5C19.7764 7.00012 20 6.77649 20 6.50012C20 6.22375 19.7764 6.00012 19.5 6.00012ZM10 5.00012H14V6.00012H10V5.00012ZM16.5371 19.0001H7.46313L6.54004 7.00012H9.5H14.5H17.46L16.5371 19.0001Z" fill="#EB5757"/>
<path d="M12 9C11.7239 9 11.5 9.22363 11.5 9.5V16.5C11.5 16.7764 11.7239 17 12 17C12.2761 17 12.5 16.7764 12.5 16.5V9.5C12.5 9.22363 12.2761 9 12 9Z" fill="#EB5757"/>
<path d="M14 9.5V16.5C14 16.7764 14.2236 17 14.5 17C14.7764 17 15 16.7764 15 16.5V9.5C15 9.22363 14.7764 9 14.5 9C14.2236 9 14 9.22363 14 9.5Z" fill="#EB5757"/>
<path d="M9.5 9C9.22388 9 9 9.22363 9 9.5V16.5C9 16.7764 9.22388 17 9.5 17C9.77613 17 10 16.7764 10 16.5V9.5C10 9.22363 9.77613 9 9.5 9Z" fill="#EB5757"/>
</svg>
