<svg height="30" viewBox="0 0 50 60" width="30" xmlns="http://www.w3.org/2000/svg"><g id="032---Employee-Details" fill="none"><g id="Icons" transform="translate(1 1)"><path id="Shape" d="m42 3v35.5c.0034467-7.2617483-5.7381468-13.2252071-12.9948096-13.4969519-7.2566628-.2717449-13.428185 5.245596-13.9678568 12.487264-.5396718 7.2416679 4.7458822 13.6128261 11.9626664 14.4196879 1.7.212 5.928.09-24 .09-1.65685425 0-3-1.3431458-3-3v-46c0-1.65685425 1.34314575-3 3-3h36c1.6568542 0 3 1.34314575 3 3z" fill="#6a1b9a"/><path id="Shape" d="m39 3v27.02c-3.735818-4.6319449-10.0639113-6.2714786-15.5789163-4.036312-5.515005 2.2351667-8.9160384 7.8178011-8.3728879 13.7436966s4.9023663 10.7972477 10.7318042 11.9926154l-.28.28h-22.5c-1.65685425 0-3-1.3431458-3-3v-46c0-1.65685425 1.34314575-3 3-3h33c1.6568542 0 3 1.34314575 3 3z" fill="#9d27b0"/><path id="Shape" d="m47.41 54.59-8.05-8.06c4.250943-5.6819131 3.3890568-13.682808-1.9744698-18.3290146-5.3635265-4.6462067-13.4055626-4.3584205-18.423264.6592808-5.0177013 5.0177014-5.3054875 13.0597375-.6592808 18.423264 4.6462066 5.3635266 12.6471015 6.2254128 18.3290146 1.9744698l-.1.1 8.06 8.05c.7787215.7787214 2.0412785.7787214 2.8199999-.0000001.7787215-.7787214.7787215-2.0412784.0000001-2.8199999z" fill="#283593"/><path id="Shape" d="m17.7 22.3c-.0802874.2991618-.2999874.5412042-.59.65-3.953896 1.3950027-8.26610401 1.3950027-12.22 0-.29001258-.1087958-.50971263-.3508382-.59-.65-1.008-3.717.578-7.754 3.53-9.43 1.84487575 1.50644 4.4951242 1.50644 6.34 0 3.1362721 2.0138381 4.5729372 5.8517283 3.53 9.43z" fill="#ff9801"/><ellipse id="Oval" cx="27" cy="38.5" fill="#3f51b5" rx="12" ry="13.41"/><path id="Shape" d="m34.49 31.13c-4.34 1.67-11.45 5.46-13.75 12.85-2.731264-3.8768575-2.1851059-9.1741419 1.2797141-12.4121736 3.4648199-3.2380318 8.7869056-3.4248879 12.4702859-.4378264z" fill="#02a9f4"/><path id="Shape" d="m38 38.5c-.0136925 4.1319293-2.6938954 7.7822272-6.6321173 9.0326012-3.9382219 1.2503741-8.2332126-.1853201-10.6278827-3.5526012 2.3-7.39 9.41-11.18 13.75-12.85 2.223234 1.8003187 3.5133751 4.5092473 3.51 7.37z" fill="#0377bc"/><circle id="Oval" cx="11" cy="9" fill="#ffe0b2" r="5"/></g><g id="Layer_2" fill="#000"><path id="Shape" d="m5.124 24.717.019.007c4.41319243 1.7004879 9.3008076 1.7004879 13.714 0l.019-.007c.027-.012.058-.019.085-.031s.035-.028.056-.039c.2183313-.1142928.3880667-.3035585.478-.533 1.261648-3.7109447.1553779-7.8163918-2.8-10.391 1.9521229-2.4559783 1.6826206-6.0012189-.6183223-8.13388734-2.300943-2.13266845-5.8564124-2.13266845-8.15735536 0-2.30094296 2.13266844-2.57044527 5.67790904-.61832234 8.13388734-2.13944981 1.8052435-3.35193684 4.4781511-3.301 7.277-.01673912 1.0596672.15423186 2.1139318.505 3.114.08993329.2294415.25966873.4187072.478.533.021.011.034.029.056.039s.061.019.085.031zm6.876-18.717c2.209139 0 4 1.790861 4 4s-1.790861 4-4 4-4-1.790861-4-4 1.790861-4 4-4zm-4.481 10.351c.36496718-.4876117.80000135-.9186022 1.291-1.279 1.9467524 1.2358786 4.4322476 1.2358786 6.379 0 2.3677509 1.8935782 3.3655435 5.0245961 2.53 7.939-3.699102 1.3160308-7.73889801 1.3160308-11.438 0-.63940055-2.291998-.18232968-4.7508768 1.238-6.66z"/><path id="Shape" d="m23 8h4c.5522847 0 1-.44771525 1-1s-.4477153-1-1-1h-4c-.5522847 0-1 .44771525-1 1s.4477153 1 1 1z"/><path id="Shape" d="m31 8h7c.5522847 0 1-.44771525 1-1s-.4477153-1-1-1h-7c-.5522847 0-1 .44771525-1 1s.4477153 1 1 1z"/><path id="Shape" d="m38 16h-4c-.5522847 0-1 .4477153-1 1s.4477153 1 1 1h4c.5522847 0 1-.4477153 1-1s-.4477153-1-1-1z"/><path id="Shape" d="m23 18h7c.5522847 0 1-.4477153 1-1s-.4477153-1-1-1h-7c-.5522847 0-1 .4477153-1 1s.4477153 1 1 1z"/><path id="Shape" d="m23 13h15c.5522847 0 1-.4477153 1-1s-.4477153-1-1-1h-15c-.5522847 0-1 .4477153-1 1s.4477153 1 1 1z"/><path id="Shape" d="m23 23h15c.5522847 0 1-.4477153 1-1s-.4477153-1-1-1h-15c-.5522847 0-1 .4477153-1 1s.4477153 1 1 1z"/><path id="Shape" d="m29.5 29c-5.7989899 0-10.5 4.7010101-10.5 10.5s4.7010101 10.5 10.5 10.5 10.5-4.7010101 10.5-10.5c-.006613-5.7962485-4.7037515-10.493387-10.5-10.5zm0 19c-3.4379291 0-6.5373375-2.0709585-7.852976-5.2471908s-.5884146-6.8322339 1.8425684-9.2632168c2.4309829-2.430983 6.0869845-3.1582069 9.2632168-1.8425684s5.2471908 4.4150469 5.2471908 7.852976c-.0055104 4.692136-3.807864 8.4944896-8.5 8.5z"/><path id="Shape" d="m41.643 47.4c1.538308-2.347575 2.3575107-5.0933116 2.357-7.9v-35.5c0-2.209139-1.790861-4-4-4h-36c-2.209139 0-4 1.790861-4 4v46c0 2.209139 1.790861 4 4 4h25.5c2.8066884.0005107 5.552425-.818692 7.9-2.357l7.478 7.47c.7513371.7781651 1.8638923 1.0907326 2.9105565.8177079 1.0466642-.2730246 1.8647812-1.0892121 2.1402765-2.1352287.2754954-1.0460166-.0344442-2.1593067-.810833-2.9124792zm-37.643 4.6c-1.1045695 0-2-.8954305-2-2v-46c0-1.1045695.8954305-2 2-2h36c1.1045695 0 2 .8954305 2 2v28.188c-3.0601908-5.2478356-9.0695167-8.0290164-15.0506266-6.9655922s-10.6634799 5.7455579-11.7272059 11.726614c-1.0637261 5.9810562 1.7171514 11.9905225 6.9648325 15.0509782zm25.5 0c-6.9035594 0-12.5-5.5964406-12.5-12.5s5.5964406-12.5 12.5-12.5 12.5 5.5964406 12.5 12.5c-.0077154 6.900361-5.599639 12.4922846-12.5 12.5zm18.2 5.708c-.3888435.3811429-1.0111565.3811429-1.4 0l-7.289-7.281c.5036071-.4386065.9763935-.9113929 1.415-1.415l7.282 7.288c.1903658.1852699.2970851.4400674.2955758.7057021s-.111117.5192032-.3035758.7022979z"/><path id="Shape" d="m14 30h-8c-.55228475 0-1 .4477153-1 1s.44771525 1 1 1h8c.5522847 0 1-.4477153 1-1s-.4477153-1-1-1z"/><path id="Shape" d="m13 45h-7c-.55228475 0-1 .4477153-1 1s.44771525 1 1 1h7c.5522847 0 1-.4477153 1-1s-.4477153-1-1-1z"/><path id="Shape" d="m12 35h-6c-.55228475 0-1 .4477153-1 1s.44771525 1 1 1h6c.5522847 0 1-.4477153 1-1s-.4477153-1-1-1z"/><path id="Shape" d="m12 40h-6c-.55228475 0-1 .4477153-1 1s.44771525 1 1 1h6c.5522847 0 1-.4477153 1-1s-.4477153-1-1-1z"/></g></g></svg>