<?xml version="1.0" encoding="UTF-8"?>
<svg xmlns="http://www.w3.org/2000/svg" xmlns:xlink="http://www.w3.org/1999/xlink" width="30pt" height="30pt" viewBox="0 0 30 30" version="1.1">
<g id="surface1">
<path style=" stroke:none;fill-rule:nonzero;fill:rgb(0%,0%,0%);fill-opacity:1;" d="M 7.089844 4.015625 L 2.636719 4.015625 C 2.152344 4.015625 1.757812 4.40625 1.757812 4.890625 C 1.757812 5.378906 2.152344 5.773438 2.636719 5.773438 L 7.089844 5.773438 C 7.574219 5.773438 7.96875 5.378906 7.96875 4.890625 C 7.96875 4.40625 7.574219 4.015625 7.089844 4.015625 Z M 7.089844 4.015625 "/>
<path style=" stroke:none;fill-rule:nonzero;fill:rgb(0%,0%,0%);fill-opacity:1;" d="M 7.089844 11.046875 L 2.636719 11.046875 C 2.152344 11.046875 1.757812 11.4375 1.757812 11.921875 C 1.757812 12.410156 2.152344 12.804688 2.636719 12.804688 L 7.089844 12.804688 C 7.574219 12.804688 7.96875 12.410156 7.96875 11.921875 C 7.96875 11.4375 7.574219 11.046875 7.089844 11.046875 Z M 7.089844 11.046875 "/>
<path style=" stroke:none;fill-rule:nonzero;fill:rgb(0%,0%,0%);fill-opacity:1;" d="M 5.332031 7.53125 L 0.878906 7.53125 C 0.394531 7.53125 0 7.921875 0 8.40625 C 0 8.894531 0.394531 9.289062 0.878906 9.289062 L 5.332031 9.289062 C 5.816406 9.289062 6.210938 8.894531 6.210938 8.40625 C 6.210938 7.921875 5.816406 7.53125 5.332031 7.53125 Z M 5.332031 7.53125 "/>
<path style=" stroke:none;fill-rule:nonzero;fill:rgb(0%,0%,0%);fill-opacity:1;" d="M 28.242188 11.921875 L 22.910156 11.921875 L 22.910156 8.40625 C 22.910156 6.863281 21.023438 6.050781 19.910156 7.164062 L 12.878906 14.195312 C 12.191406 14.882812 12.191406 15.996094 12.878906 16.683594 L 16.910156 20.710938 L 12 25.621094 C 11.3125 26.308594 11.3125 27.421875 12 28.109375 C 12.6875 28.792969 13.796875 28.792969 14.484375 28.109375 L 20.636719 21.957031 C 21.324219 21.269531 21.324219 20.15625 20.636719 19.46875 L 16.605469 15.4375 L 19.394531 12.652344 L 19.394531 13.679688 C 19.394531 14.652344 20.179688 15.4375 21.152344 15.4375 L 28.242188 15.4375 C 29.214844 15.4375 30 14.652344 30 13.679688 C 30 12.710938 29.214844 11.921875 28.242188 11.921875 Z M 28.242188 11.921875 "/>
<path style=" stroke:none;fill-rule:nonzero;fill:rgb(0%,0%,0%);fill-opacity:1;" d="M 16.414062 2.992188 C 15.714844 2.527344 14.789062 2.617188 14.195312 3.210938 L 9.363281 8.042969 C 8.675781 8.730469 8.675781 9.84375 9.363281 10.53125 C 10.050781 11.214844 11.160156 11.214844 11.847656 10.53125 L 15.664062 6.714844 L 16.949219 7.640625 L 18.664062 5.921875 C 18.953125 5.636719 19.292969 5.414062 19.664062 5.238281 Z M 16.414062 2.992188 "/>
<path style=" stroke:none;fill-rule:nonzero;fill:rgb(0%,0%,0%);fill-opacity:1;" d="M 11.636719 17.925781 C 11.191406 17.480469 10.894531 16.929688 10.734375 16.339844 L 1.453125 25.621094 C 0.765625 26.308594 0.765625 27.421875 1.453125 28.109375 C 2.140625 28.792969 3.25 28.792969 3.9375 28.109375 L 12.878906 19.167969 Z M 11.636719 17.925781 "/>
<path style=" stroke:none;fill-rule:nonzero;fill:rgb(0%,0%,0%);fill-opacity:1;" d="M 26.425781 4.015625 C 26.425781 5.46875 25.246094 6.648438 23.789062 6.648438 C 22.332031 6.648438 21.152344 5.46875 21.152344 4.015625 C 21.152344 2.558594 22.332031 1.375 23.789062 1.375 C 25.246094 1.375 26.425781 2.558594 26.425781 4.015625 Z M 26.425781 4.015625 "/>
</g>
</svg>
