<?xml version="1.0" encoding="UTF-8"?>
<svg xmlns="http://www.w3.org/2000/svg" xmlns:xlink="http://www.w3.org/1999/xlink" width="25pt" height="25pt" viewBox="0 0 50 50" version="1.1">
<g id="surface1">
<path style=" stroke:none;fill-rule:nonzero;fill:rgb(0%,0%,0%);fill-opacity:1;" d="M 25 0 C 17.730469 0 11.816406 5.914062 11.816406 13.183594 C 11.816406 20.453125 17.730469 26.367188 25 26.367188 C 32.269531 26.367188 38.183594 20.453125 38.183594 13.183594 C 38.183594 5.914062 32.269531 0 25 0 Z M 25 0 "/>
<path style=" stroke:none;fill-rule:nonzero;fill:rgb(0%,0%,0%);fill-opacity:1;" d="M 41.402344 34.980469 C 37.792969 31.316406 33.007812 29.296875 27.929688 29.296875 L 22.070312 29.296875 C 16.992188 29.296875 12.207031 31.316406 8.597656 34.980469 C 5.003906 38.625 3.027344 43.441406 3.027344 48.535156 C 3.027344 49.34375 3.683594 50 4.492188 50 L 45.507812 50 C 46.316406 50 46.972656 49.34375 46.972656 48.535156 C 46.972656 43.441406 44.996094 38.625 41.402344 34.980469 Z M 41.402344 34.980469 "/>
</g>
</svg>
